<mxfile host="app.diagrams.net" modified="2023-10-16T02:30:52.371Z" agent="Mozilla/5.0 (Windows NT 10.0; Win64; x64; rv:109.0) Gecko/20100101 Firefox/118.0" etag="Cd7iggSSuJlNgmvjJRHq" version="22.0.4" type="github">
  <diagram id="C5RBs43oDa-KdzZeNtuy" name="Page-1">
    <mxGraphModel dx="880" dy="425" grid="1" gridSize="10" guides="1" tooltips="1" connect="1" arrows="1" fold="1" page="1" pageScale="1" pageWidth="827" pageHeight="1169" math="0" shadow="0">
      <root>
        <mxCell id="WIyWlLk6GJQsqaUBKTNV-0" />
        <mxCell id="WIyWlLk6GJQsqaUBKTNV-1" parent="WIyWlLk6GJQsqaUBKTNV-0" />
        <mxCell id="y2BW1O-c0pxxsDkwY6be-8" style="edgeStyle=orthogonalEdgeStyle;rounded=0;orthogonalLoop=1;jettySize=auto;html=1;" edge="1" parent="WIyWlLk6GJQsqaUBKTNV-1" source="y2BW1O-c0pxxsDkwY6be-0">
          <mxGeometry relative="1" as="geometry">
            <mxPoint x="414" y="110" as="targetPoint" />
          </mxGeometry>
        </mxCell>
        <mxCell id="y2BW1O-c0pxxsDkwY6be-0" value="mulai" style="strokeWidth=2;html=1;shape=mxgraph.flowchart.start_1;whiteSpace=wrap;" vertex="1" parent="WIyWlLk6GJQsqaUBKTNV-1">
          <mxGeometry x="364" y="10" width="100" height="60" as="geometry" />
        </mxCell>
        <mxCell id="y2BW1O-c0pxxsDkwY6be-9" style="edgeStyle=orthogonalEdgeStyle;rounded=0;orthogonalLoop=1;jettySize=auto;html=1;entryX=0.5;entryY=0;entryDx=0;entryDy=0;" edge="1" parent="WIyWlLk6GJQsqaUBKTNV-1" source="y2BW1O-c0pxxsDkwY6be-1" target="y2BW1O-c0pxxsDkwY6be-2">
          <mxGeometry relative="1" as="geometry" />
        </mxCell>
        <mxCell id="y2BW1O-c0pxxsDkwY6be-1" value="menetapkan bilangan ganjil\genap" style="shape=parallelogram;html=1;strokeWidth=2;perimeter=parallelogramPerimeter;whiteSpace=wrap;rounded=1;arcSize=12;size=0.23;" vertex="1" parent="WIyWlLk6GJQsqaUBKTNV-1">
          <mxGeometry x="364" y="110" width="100" height="60" as="geometry" />
        </mxCell>
        <mxCell id="y2BW1O-c0pxxsDkwY6be-2" value="di bagi 2" style="rounded=1;whiteSpace=wrap;html=1;absoluteArcSize=1;arcSize=14;strokeWidth=2;" vertex="1" parent="WIyWlLk6GJQsqaUBKTNV-1">
          <mxGeometry x="364" y="250" width="100" height="100" as="geometry" />
        </mxCell>
        <mxCell id="y2BW1O-c0pxxsDkwY6be-11" style="edgeStyle=orthogonalEdgeStyle;rounded=0;orthogonalLoop=1;jettySize=auto;html=1;exitX=1;exitY=0.5;exitDx=0;exitDy=0;exitPerimeter=0;" edge="1" parent="WIyWlLk6GJQsqaUBKTNV-1" source="y2BW1O-c0pxxsDkwY6be-3" target="y2BW1O-c0pxxsDkwY6be-4">
          <mxGeometry relative="1" as="geometry" />
        </mxCell>
        <mxCell id="y2BW1O-c0pxxsDkwY6be-16" value="bisa" style="edgeLabel;html=1;align=center;verticalAlign=middle;resizable=0;points=[];" vertex="1" connectable="0" parent="y2BW1O-c0pxxsDkwY6be-11">
          <mxGeometry x="-0.1378" y="-3" relative="1" as="geometry">
            <mxPoint as="offset" />
          </mxGeometry>
        </mxCell>
        <mxCell id="y2BW1O-c0pxxsDkwY6be-12" style="edgeStyle=orthogonalEdgeStyle;rounded=0;orthogonalLoop=1;jettySize=auto;html=1;exitX=0.5;exitY=1;exitDx=0;exitDy=0;exitPerimeter=0;" edge="1" parent="WIyWlLk6GJQsqaUBKTNV-1" source="y2BW1O-c0pxxsDkwY6be-3" target="y2BW1O-c0pxxsDkwY6be-6">
          <mxGeometry relative="1" as="geometry" />
        </mxCell>
        <mxCell id="y2BW1O-c0pxxsDkwY6be-15" value="tidak bisa" style="edgeLabel;html=1;align=center;verticalAlign=middle;resizable=0;points=[];" vertex="1" connectable="0" parent="y2BW1O-c0pxxsDkwY6be-12">
          <mxGeometry x="-0.1333" relative="1" as="geometry">
            <mxPoint as="offset" />
          </mxGeometry>
        </mxCell>
        <mxCell id="y2BW1O-c0pxxsDkwY6be-3" value="bilangan dibagi dengan 2" style="strokeWidth=2;html=1;shape=mxgraph.flowchart.decision;whiteSpace=wrap;" vertex="1" parent="WIyWlLk6GJQsqaUBKTNV-1">
          <mxGeometry x="360" y="430" width="100" height="100" as="geometry" />
        </mxCell>
        <mxCell id="y2BW1O-c0pxxsDkwY6be-4" value="genap" style="shape=parallelogram;html=1;strokeWidth=2;perimeter=parallelogramPerimeter;whiteSpace=wrap;rounded=1;arcSize=12;size=0.23;" vertex="1" parent="WIyWlLk6GJQsqaUBKTNV-1">
          <mxGeometry x="590" y="450" width="100" height="60" as="geometry" />
        </mxCell>
        <mxCell id="y2BW1O-c0pxxsDkwY6be-5" value="finish" style="strokeWidth=2;html=1;shape=mxgraph.flowchart.start_1;whiteSpace=wrap;" vertex="1" parent="WIyWlLk6GJQsqaUBKTNV-1">
          <mxGeometry x="360" y="840" width="100" height="60" as="geometry" />
        </mxCell>
        <mxCell id="y2BW1O-c0pxxsDkwY6be-13" style="edgeStyle=orthogonalEdgeStyle;rounded=0;orthogonalLoop=1;jettySize=auto;html=1;exitX=0.5;exitY=1;exitDx=0;exitDy=0;" edge="1" parent="WIyWlLk6GJQsqaUBKTNV-1" source="y2BW1O-c0pxxsDkwY6be-6" target="y2BW1O-c0pxxsDkwY6be-5">
          <mxGeometry relative="1" as="geometry" />
        </mxCell>
        <mxCell id="y2BW1O-c0pxxsDkwY6be-6" value="ganjil" style="shape=parallelogram;html=1;strokeWidth=2;perimeter=parallelogramPerimeter;whiteSpace=wrap;rounded=1;arcSize=12;size=0.23;" vertex="1" parent="WIyWlLk6GJQsqaUBKTNV-1">
          <mxGeometry x="360" y="710" width="100" height="60" as="geometry" />
        </mxCell>
        <mxCell id="y2BW1O-c0pxxsDkwY6be-10" style="edgeStyle=orthogonalEdgeStyle;rounded=0;orthogonalLoop=1;jettySize=auto;html=1;exitX=0.5;exitY=1;exitDx=0;exitDy=0;entryX=0.5;entryY=0;entryDx=0;entryDy=0;entryPerimeter=0;" edge="1" parent="WIyWlLk6GJQsqaUBKTNV-1" source="y2BW1O-c0pxxsDkwY6be-2" target="y2BW1O-c0pxxsDkwY6be-3">
          <mxGeometry relative="1" as="geometry" />
        </mxCell>
        <mxCell id="y2BW1O-c0pxxsDkwY6be-14" style="edgeStyle=orthogonalEdgeStyle;rounded=0;orthogonalLoop=1;jettySize=auto;html=1;exitX=1;exitY=0.5;exitDx=0;exitDy=0;entryX=1;entryY=0.5;entryDx=0;entryDy=0;entryPerimeter=0;" edge="1" parent="WIyWlLk6GJQsqaUBKTNV-1" source="y2BW1O-c0pxxsDkwY6be-4" target="y2BW1O-c0pxxsDkwY6be-5">
          <mxGeometry relative="1" as="geometry">
            <Array as="points">
              <mxPoint x="740" y="480" />
              <mxPoint x="740" y="870" />
            </Array>
          </mxGeometry>
        </mxCell>
      </root>
    </mxGraphModel>
  </diagram>
</mxfile>
